<svg width="253" height="253" viewBox="0 0 253 253" fill="none" xmlns="http://www.w3.org/2000/svg">
<rect width="253" height="253" fill="white"/>
<path d="M61.625 187.281L58.9375 174.641L63.0156 173.688L65.2969 187.031L65.625 191.188L66.3281 191.219L69.0938 182.219L67.9062 176.234L71.9531 175.531L73.9062 184.656L75 191.125L75.8438 191.062C75.9479 190.396 76.0625 189.604 76.1875 188.688C76.5729 185.938 76.8438 183.938 77 182.688L77.4219 179.234C77.7031 176.828 77.8906 174.99 77.9844 173.719L82.3281 174.359C82.3281 174.359 82.1875 175.245 81.9062 177.016C81.2917 181.13 80.6354 184.531 79.9375 187.219L78.1875 194L72.6562 194.25L70.9375 187.406H70.5312L68.7344 194L63.0469 194.25L61.625 187.281ZM93.125 188.828H92.0938C91.5104 188.828 90.5885 188.708 89.3281 188.469L88.1406 194.25L84.4219 193.422L86.25 185.297L88.375 174.672C90.7292 174.255 93.2135 173.938 95.8281 173.719L98.2969 184.438L100.203 193.844L96.4062 194.453L94.7344 185.234L93.1094 177.453C92.5156 177.453 91.8958 177.552 91.25 177.75L89.9062 185.453L93.9375 185.547L93.4531 188.812C93.3385 188.823 93.2292 188.828 93.125 188.828ZM103.75 179.438L107.547 178.797V181.938L107.453 185.719L111.938 184.625C112.573 182.615 112.891 180.792 112.891 179.156C112.891 178.812 112.87 178.49 112.828 178.188C111.068 177.635 107.594 177.255 102.406 177.047L103 173.359C107.448 173.536 111.302 173.964 114.562 174.641C114.844 174.703 115.292 175.115 115.906 175.875C116.51 176.625 116.823 177.151 116.844 177.453C116.875 177.755 116.891 178.052 116.891 178.344V179.219C116.891 180.573 116.547 182.323 115.859 184.469C115.484 185.635 115.115 186.385 114.75 186.719C114.583 186.875 114.432 186.99 114.297 187.062L112.766 187.562C114.286 189.219 115.693 191.036 116.984 193.016L113.734 195.219L109.828 188.344L107.547 188.469L107.422 194L104.031 194.281L103.75 179.438ZM120.906 192.281C120.906 189.094 120.953 185.604 121.047 181.812L120.75 174.828C120.948 174.786 121.208 174.734 121.531 174.672C121.531 174.672 121.896 174.604 122.625 174.469C123.021 174.396 123.438 174.323 123.875 174.25L125.188 174.031C125.948 173.917 126.729 173.833 127.531 173.781L131.656 186.828L132.609 191.312L133.516 191.219L133.312 186.188L133.453 174.031L137.453 173.688C137.37 176.823 137.109 180.896 136.672 185.906L136.438 193.578C134.573 193.922 132.443 194.156 130.047 194.281L125.922 181.078L125 176.953L124.172 177.078L124.328 181.781L124.484 193.969L120.906 194.281V192.281ZM142 174.312L145.938 173.688V182.25L145.453 189.875C146.255 190.188 147.339 190.438 148.703 190.625C150.068 190.802 150.891 190.911 151.172 190.953L150.281 194.422C149.167 194.276 148.266 194.141 147.578 194.016L145.75 193.672C143.865 193.307 142.615 192.979 142 192.688V174.312ZM157.672 190.516L165.25 191.656L164.422 195.062L162.062 194.75C158.594 194.271 155.99 193.797 154.25 193.328L154.047 175.312C157.724 174.375 161.224 173.745 164.547 173.422L165.094 177.141L157.609 178L157.766 182.672L164.484 182.391L164.234 186.062L157.797 185.844L157.672 190.516ZM168.312 190.797C171.365 190.568 173.703 190.219 175.328 189.75C175.401 189.271 175.438 188.729 175.438 188.125C175.438 187.51 175.422 186.943 175.391 186.422L169.844 184.406C169.469 184.271 169.188 184.026 169 183.672C168.812 183.307 168.672 182.833 168.578 182.25C168.37 180.969 168.266 179.99 168.266 179.312C168.266 178.24 168.292 177.464 168.344 176.984C168.427 176.13 168.974 175.552 169.984 175.25C172.349 174.396 175.13 173.693 178.328 173.141L179.281 176.906L177.281 177.188C175.302 177.479 173.656 177.792 172.344 178.125C172.302 178.396 172.281 178.75 172.281 179.188C172.281 180.083 172.302 180.786 172.344 181.297L178.109 183.828C178.745 184.099 179.172 184.573 179.391 185.25C179.453 185.448 179.484 185.589 179.484 185.672C179.484 185.755 179.474 185.938 179.453 186.219C179.443 186.49 179.422 186.854 179.391 187.312C179.307 188.542 179.203 189.599 179.078 190.484C178.953 191.359 178.646 191.958 178.156 192.281C177.677 192.594 177.089 192.875 176.391 193.125C175.703 193.365 174.958 193.583 174.156 193.781C172.854 194.083 171.13 194.391 168.984 194.703L168.312 190.797ZM182.406 190.797C185.458 190.568 187.797 190.219 189.422 189.75C189.495 189.271 189.531 188.729 189.531 188.125C189.531 187.51 189.516 186.943 189.484 186.422L183.938 184.406C183.562 184.271 183.281 184.026 183.094 183.672C182.906 183.307 182.766 182.833 182.672 182.25C182.464 180.969 182.359 179.99 182.359 179.312C182.359 178.24 182.385 177.464 182.438 176.984C182.521 176.13 183.068 175.552 184.078 175.25C186.443 174.396 189.224 173.693 192.422 173.141L193.375 176.906L191.375 177.188C189.396 177.479 187.75 177.792 186.438 178.125C186.396 178.396 186.375 178.75 186.375 179.188C186.375 180.083 186.396 180.786 186.438 181.297L192.203 183.828C192.839 184.099 193.266 184.573 193.484 185.25C193.547 185.448 193.578 185.589 193.578 185.672C193.578 185.755 193.568 185.938 193.547 186.219C193.536 186.49 193.516 186.854 193.484 187.312C193.401 188.542 193.297 189.599 193.172 190.484C193.047 191.359 192.74 191.958 192.25 192.281C191.771 192.594 191.182 192.875 190.484 193.125C189.797 193.365 189.052 193.583 188.25 193.781C186.948 194.083 185.224 194.391 183.078 194.703L182.406 190.797Z" fill="black"/>
<path d="M87.4375 125.188L85.3125 134.062L63.9375 53.5H68.5625L87.4375 125.188ZM92.125 107.875L89.8125 116.5L73.25 53.5H77.8125L92.125 107.875ZM96.8125 89.9375L94.4375 98.6875L82.5 53.5H87.1875L96.8125 89.9375ZM114.625 157H109.938L137.312 53.625L137.25 53.5H142V53.625L154.188 95.625L165.375 53.5H170.062L142.625 157H137.938L125.688 115.062L114.625 157ZM105.25 157H100.625L128 53.5H132.625L105.25 157ZM95.9375 157H91.3125L118.75 53.5H123.312L95.9375 157ZM170.625 157H165.938L193.312 53.5H198L170.625 157ZM161.25 157H156.625L184 53.5H188.625L161.25 157ZM151.938 157H147.312L174.75 53.5H179.312L151.938 157ZM84.3125 148.125L109.375 53.5H114.062L86.625 157H81.9375L54.5625 53.5H59.25L84.3125 148.125ZM128.062 106.25L140.188 148.5L142.562 139.562L130.375 97.4375L128.062 106.25ZM132.688 88.625L144.875 130.75L147.25 121.938L135.062 79.75L132.688 88.625ZM137.312 71.125L149.562 113.25L151.875 104.375L139.75 62.125L137.312 71.125Z" fill="black"/>
<path d="M216.951 87.6793C221.107 78.2295 223.852 55.8647 201.582 41.9793C200.427 41.2114 198.808 40.0964 197.377 39.0924L196.507 37.206L194.187 36.0489C194.097 35.9591 192.737 35.8982 190.708 36.766C182.298 36.766 163.955 41.1038 162 67.1467C165.132 68.5436 169.48 70.3261 173.782 72.021C173.866 72.0542 173.95 72.0873 174.034 72.1204C180.927 74.8323 187.638 77.2955 188.968 77.5608C191.313 78.0286 215.501 84.208 216.951 87.6793Z" fill="white"/>
<path d="M228.695 105.47C229.275 107.495 229.33 112.114 226.082 111.998C222.836 111.882 214.683 103.208 212.456 99.9737C221.58 100.594 226.794 103.469 228.695 105.47Z" fill="white"/>
<path d="M188.968 77.5608C191.313 78.0286 215.501 84.208 216.951 87.6793L228.695 105.47C226.794 103.469 221.58 100.594 212.456 99.9737C209.049 99.7421 205.35 99.8999 200.709 100.427C195.876 100.234 183.872 94.2373 173.78 72.0206L173.782 72.021C173.866 72.0542 173.95 72.0873 174.034 72.1204C176.839 73.224 179.614 74.2863 182.008 75.1762C185.498 76.473 188.179 77.4034 188.968 77.5608Z" fill="white"/>
<path d="M216.951 87.6793C221.107 78.2295 223.852 55.8647 201.582 41.9793C200.427 41.2114 198.808 40.0964 197.377 39.0924M216.951 87.6793C215.501 84.208 191.313 78.0286 188.968 77.5608M216.951 87.6793L228.695 105.47M188.968 77.5608C187.638 77.2955 180.927 74.8323 174.034 72.1204M188.968 77.5608C188.179 77.4034 185.498 76.473 182.008 75.1762M228.695 105.47C229.275 107.495 229.33 112.114 226.082 111.998C222.836 111.882 214.683 103.208 212.456 99.9737M228.695 105.47C226.794 103.469 221.58 100.594 212.456 99.9737M197.377 39.0924C194.187 39.6651 194.765 39.533 193.025 38.9545M197.377 39.0924L196.507 37.206L194.187 36.0489C194.097 35.9591 192.737 35.8982 190.708 36.766M190.708 36.766C182.298 36.766 163.955 41.1038 162 67.1467C165.132 68.5436 169.48 70.3261 173.782 72.021M190.708 36.766L193.025 38.9545M193.025 38.9545C186.114 48.79 175.513 71.0105 182.008 75.1762M182.008 75.1762C179.614 74.2863 176.839 73.224 174.034 72.1204M212.456 99.9737C209.049 99.7421 205.35 99.8999 200.709 100.427C195.876 100.234 183.872 94.2373 173.78 72.0206L173.782 72.021M174.034 72.1204C173.95 72.0873 173.866 72.0542 173.782 72.021M174.034 72.1204L173.782 72.021" stroke="black" stroke-width="2"/>
</svg>
