<svg width="253" height="253" viewBox="0 0 253 253" fill="none" xmlns="http://www.w3.org/2000/svg">
<rect width="253" height="253" fill="black"/>
<path d="M61.625 192.281L58.9375 179.641L63.0156 178.688L65.2969 192.031L65.625 196.188L66.3281 196.219L69.0938 187.219L67.9062 181.234L71.9531 180.531L73.9062 189.656L75 196.125L75.8438 196.062C75.9479 195.396 76.0625 194.604 76.1875 193.688C76.5729 190.938 76.8438 188.938 77 187.688L77.4219 184.234C77.7031 181.828 77.8906 179.99 77.9844 178.719L82.3281 179.359C82.3281 179.359 82.1875 180.245 81.9062 182.016C81.2917 186.13 80.6354 189.531 79.9375 192.219L78.1875 199L72.6562 199.25L70.9375 192.406H70.5312L68.7344 199L63.0469 199.25L61.625 192.281ZM93.125 193.828H92.0938C91.5104 193.828 90.5885 193.708 89.3281 193.469L88.1406 199.25L84.4219 198.422L86.25 190.297L88.375 179.672C90.7292 179.255 93.2135 178.938 95.8281 178.719L98.2969 189.438L100.203 198.844L96.4062 199.453L94.7344 190.234L93.1094 182.453C92.5156 182.453 91.8958 182.552 91.25 182.75L89.9062 190.453L93.9375 190.547L93.4531 193.812C93.3385 193.823 93.2292 193.828 93.125 193.828ZM103.75 184.438L107.547 183.797V186.938L107.453 190.719L111.938 189.625C112.573 187.615 112.891 185.792 112.891 184.156C112.891 183.812 112.87 183.49 112.828 183.188C111.068 182.635 107.594 182.255 102.406 182.047L103 178.359C107.448 178.536 111.302 178.964 114.562 179.641C114.844 179.703 115.292 180.115 115.906 180.875C116.51 181.625 116.823 182.151 116.844 182.453C116.875 182.755 116.891 183.052 116.891 183.344V184.219C116.891 185.573 116.547 187.323 115.859 189.469C115.484 190.635 115.115 191.385 114.75 191.719C114.583 191.875 114.432 191.99 114.297 192.062L112.766 192.562C114.286 194.219 115.693 196.036 116.984 198.016L113.734 200.219L109.828 193.344L107.547 193.469L107.422 199L104.031 199.281L103.75 184.438ZM120.906 197.281C120.906 194.094 120.953 190.604 121.047 186.812L120.75 179.828C120.948 179.786 121.208 179.734 121.531 179.672C121.531 179.672 121.896 179.604 122.625 179.469C123.021 179.396 123.438 179.323 123.875 179.25L125.188 179.031C125.948 178.917 126.729 178.833 127.531 178.781L131.656 191.828L132.609 196.312L133.516 196.219L133.312 191.188L133.453 179.031L137.453 178.688C137.37 181.823 137.109 185.896 136.672 190.906L136.438 198.578C134.573 198.922 132.443 199.156 130.047 199.281L125.922 186.078L125 181.953L124.172 182.078L124.328 186.781L124.484 198.969L120.906 199.281V197.281ZM142 179.312L145.938 178.688V187.25L145.453 194.875C146.255 195.188 147.339 195.438 148.703 195.625C150.068 195.802 150.891 195.911 151.172 195.953L150.281 199.422C149.167 199.276 148.266 199.141 147.578 199.016L145.75 198.672C143.865 198.307 142.615 197.979 142 197.688V179.312ZM157.672 195.516L165.25 196.656L164.422 200.062L162.062 199.75C158.594 199.271 155.99 198.797 154.25 198.328L154.047 180.312C157.724 179.375 161.224 178.745 164.547 178.422L165.094 182.141L157.609 183L157.766 187.672L164.484 187.391L164.234 191.062L157.797 190.844L157.672 195.516ZM168.312 195.797C171.365 195.568 173.703 195.219 175.328 194.75C175.401 194.271 175.438 193.729 175.438 193.125C175.438 192.51 175.422 191.943 175.391 191.422L169.844 189.406C169.469 189.271 169.188 189.026 169 188.672C168.812 188.307 168.672 187.833 168.578 187.25C168.37 185.969 168.266 184.99 168.266 184.312C168.266 183.24 168.292 182.464 168.344 181.984C168.427 181.13 168.974 180.552 169.984 180.25C172.349 179.396 175.13 178.693 178.328 178.141L179.281 181.906L177.281 182.188C175.302 182.479 173.656 182.792 172.344 183.125C172.302 183.396 172.281 183.75 172.281 184.188C172.281 185.083 172.302 185.786 172.344 186.297L178.109 188.828C178.745 189.099 179.172 189.573 179.391 190.25C179.453 190.448 179.484 190.589 179.484 190.672C179.484 190.755 179.474 190.938 179.453 191.219C179.443 191.49 179.422 191.854 179.391 192.312C179.307 193.542 179.203 194.599 179.078 195.484C178.953 196.359 178.646 196.958 178.156 197.281C177.677 197.594 177.089 197.875 176.391 198.125C175.703 198.365 174.958 198.583 174.156 198.781C172.854 199.083 171.13 199.391 168.984 199.703L168.312 195.797ZM182.406 195.797C185.458 195.568 187.797 195.219 189.422 194.75C189.495 194.271 189.531 193.729 189.531 193.125C189.531 192.51 189.516 191.943 189.484 191.422L183.938 189.406C183.562 189.271 183.281 189.026 183.094 188.672C182.906 188.307 182.766 187.833 182.672 187.25C182.464 185.969 182.359 184.99 182.359 184.312C182.359 183.24 182.385 182.464 182.438 181.984C182.521 181.13 183.068 180.552 184.078 180.25C186.443 179.396 189.224 178.693 192.422 178.141L193.375 181.906L191.375 182.188C189.396 182.479 187.75 182.792 186.438 183.125C186.396 183.396 186.375 183.75 186.375 184.188C186.375 185.083 186.396 185.786 186.438 186.297L192.203 188.828C192.839 189.099 193.266 189.573 193.484 190.25C193.547 190.448 193.578 190.589 193.578 190.672C193.578 190.755 193.568 190.938 193.547 191.219C193.536 191.49 193.516 191.854 193.484 192.312C193.401 193.542 193.297 194.599 193.172 195.484C193.047 196.359 192.74 196.958 192.25 197.281C191.771 197.594 191.182 197.875 190.484 198.125C189.797 198.365 189.052 198.583 188.25 198.781C186.948 199.083 185.224 199.391 183.078 199.703L182.406 195.797Z" fill="white"/>
<path d="M87.4375 130.188L85.3125 139.062L63.9375 58.5H68.5625L87.4375 130.188ZM92.125 112.875L89.8125 121.5L73.25 58.5H77.8125L92.125 112.875ZM96.8125 94.9375L94.4375 103.688L82.5 58.5H87.1875L96.8125 94.9375ZM114.625 162H109.938L137.312 58.625L137.25 58.5H142V58.625L154.188 100.625L165.375 58.5H170.062L142.625 162H137.938L125.688 120.062L114.625 162ZM105.25 162H100.625L128 58.5H132.625L105.25 162ZM95.9375 162H91.3125L118.75 58.5H123.312L95.9375 162ZM170.625 162H165.938L193.312 58.5H198L170.625 162ZM161.25 162H156.625L184 58.5H188.625L161.25 162ZM151.938 162H147.312L174.75 58.5H179.312L151.938 162ZM84.3125 153.125L109.375 58.5H114.062L86.625 162H81.9375L54.5625 58.5H59.25L84.3125 153.125ZM128.062 111.25L140.188 153.5L142.562 144.562L130.375 102.438L128.062 111.25ZM132.688 93.625L144.875 135.75L147.25 126.938L135.062 84.75L132.688 93.625ZM137.312 76.125L149.562 118.25L151.875 109.375L139.75 67.125L137.312 76.125Z" fill="white"/>
<path d="M216.951 89.6793C221.107 80.2295 223.852 57.8647 201.582 43.9793C200.427 43.2114 198.808 42.0964 197.377 41.0924L196.507 39.206L194.187 38.0489C194.097 37.9591 192.737 37.8982 190.708 38.766C182.298 38.766 163.955 43.1038 162 69.1467C165.132 70.5436 169.48 72.3261 173.782 74.021C173.866 74.0542 173.95 74.0873 174.034 74.1204C180.927 76.8323 187.638 79.2955 188.968 79.5608C191.313 80.0286 215.501 86.208 216.951 89.6793Z" fill="black"/>
<path d="M228.695 107.47C229.275 109.495 229.33 114.114 226.082 113.998C222.836 113.882 214.683 105.208 212.456 101.974C221.58 102.594 226.794 105.469 228.695 107.47Z" fill="black"/>
<path d="M188.968 79.5608C191.313 80.0286 215.501 86.208 216.951 89.6793L228.695 107.47C226.794 105.469 221.58 102.594 212.456 101.974C209.049 101.742 205.35 101.9 200.709 102.427C195.876 102.234 183.872 96.2373 173.78 74.0206L173.782 74.021C173.866 74.0542 173.95 74.0873 174.034 74.1204C176.839 75.224 179.614 76.2863 182.008 77.1762C185.498 78.473 188.179 79.4034 188.968 79.5608Z" fill="black"/>
<path d="M216.951 89.6793C221.107 80.2295 223.852 57.8647 201.582 43.9793C200.427 43.2114 198.808 42.0964 197.377 41.0924M216.951 89.6793C215.501 86.208 191.313 80.0286 188.968 79.5608M216.951 89.6793L228.695 107.47M188.968 79.5608C187.638 79.2955 180.927 76.8323 174.034 74.1204M188.968 79.5608C188.179 79.4034 185.498 78.473 182.008 77.1762M228.695 107.47C229.275 109.495 229.33 114.114 226.082 113.998C222.836 113.882 214.683 105.208 212.456 101.974M228.695 107.47C226.794 105.469 221.58 102.594 212.456 101.974M197.377 41.0924C194.187 41.6651 194.765 41.533 193.025 40.9545M197.377 41.0924L196.507 39.206L194.187 38.0489C194.097 37.9591 192.737 37.8982 190.708 38.766M190.708 38.766C182.298 38.766 163.955 43.1038 162 69.1467C165.132 70.5436 169.48 72.3261 173.782 74.021M190.708 38.766L193.025 40.9545M193.025 40.9545C186.114 50.79 175.513 73.0105 182.008 77.1762M182.008 77.1762C179.614 76.2863 176.839 75.224 174.034 74.1204M212.456 101.974C209.049 101.742 205.35 101.9 200.709 102.427C195.876 102.234 183.872 96.2373 173.78 74.0206L173.782 74.021M174.034 74.1204C173.95 74.0873 173.866 74.0542 173.782 74.021M174.034 74.1204L173.782 74.021" stroke="white" stroke-width="2"/>
</svg>
